<?xml version="1.0" standalone="no"?>
<!DOCTYPE svg PUBLIC "-//W3C//DTD SVG 20010904//EN"
 "http://www.w3.org/TR/2001/REC-SVG-20010904/DTD/svg10.dtd">
<svg version="1.0" xmlns="http://www.w3.org/2000/svg"
 width="256.000000pt" height="256.000000pt" viewBox="0 0 256.000000 256.000000"
 preserveAspectRatio="xMidYMid meet">
<metadata>
Created by potrace 1.14, written by Peter Selinger 2001-2017
</metadata>
<g transform="translate(0.000000,256.000000) scale(0.100000,-0.100000)"
fill="#000000" stroke="none">
<path d="M0 1280 l0 -1280 1280 0 1280 0 0 1280 0 1280 -1280 0 -1280 0 0
-1280z m1110 511 c71 -29 129 -74 171 -132 l34 -46 53 59 c96 104 201 148 356
148 221 0 375 -103 430 -289 13 -46 16 -113 16 -418 l0 -363 -90 0 -89 0 -3
348 c-3 338 -4 348 -26 398 -49 107 -136 158 -272 159 -77 0 -92 -3 -152 -33
-40 -19 -81 -49 -102 -74 -63 -73 -66 -93 -66 -465 l0 -333 -95 0 -95 0 0 333
c0 388 -3 409 -77 488 -57 61 -113 83 -213 84 -136 0 -240 -59 -298 -169 l-27
-51 -3 -342 -3 -343 -89 0 -90 0 0 525 0 525 90 0 90 0 0 -75 0 -75 37 41 c47
52 94 82 170 109 81 29 261 24 343 -9z"/>
</g>
</svg>
